<?xml version="1.0" encoding="utf-8"?>
<!-- Generator: Adobe Illustrator 23.0.2, SVG Export Plug-In . SVG Version: 6.00 Build 0)  -->
<svg version="1.1" id="圖層_1" xmlns="http://www.w3.org/2000/svg" xmlns:xlink="http://www.w3.org/1999/xlink" x="0px" y="0px"
	 viewBox="0 0 185.1 160.3" style="enable-background:new 0 0 185.1 160.3;" xml:space="preserve">
<style type="text/css">
	.st0{font-family:'ArialMT';}
	.st1{font-size:38.41px;}
</style>
<title>in-stock logo</title>
<g>
	<polygon points="92.5,2.6 32,37.9 42.1,41.7 92.5,13.3 143,41.7 153.1,37.9 	"/>
	<rect x="88.3" y="28.4" width="8.5" height="20.2"/>
	<polygon points="131.2,102.1 143.9,86.5 133.2,86.5 123.7,97.7 104.3,86.5 85.9,86.5 97.1,92.8 138.6,116.1 148.6,112.3 	"/>
	<polygon points="45,52.9 45,44.3 36.5,44.3 36.5,52.9 36.5,61.3 45,61.3 140.1,61.3 140.1,73.7 36.5,73.7 36.5,73.9 36.5,82.2 
		36.5,112.9 45,112.9 45,82.2 148.6,82.2 148.6,78.2 148.6,73.7 148.6,61.3 148.6,58 148.6,52.9 	"/>
</g>
<g>
	<text transform="matrix(1 0 0 1 0.8513 151.0697)" class="st0 st1">IN </text>
	<text transform="matrix(1 0 0 1 52.6268 151.07)" class="st0 st1">STOCK</text>
</g>
</svg>
