<?xml version="1.0" encoding="utf-8"?>
<!-- Generator: Adobe Illustrator 23.0.2, SVG Export Plug-In . SVG Version: 6.00 Build 0)  -->
<svg version="1.1" id="圖層_1" xmlns="http://www.w3.org/2000/svg" xmlns:xlink="http://www.w3.org/1999/xlink" x="0px" y="0px"
	 viewBox="0 0 185.1 160.3" style="enable-background:new 0 0 185.1 160.3;" xml:space="preserve">
<style type="text/css">
	.st0{fill:none;stroke:#000000;stroke-miterlimit:10;}
	.st1{font-family:'ArialMT';}
	.st2{font-size:38.41px;}
</style>
<title>in-stock logo</title>
<polygon class="st0" points="91.2,0 30.7,35.3 40.8,39.1 91.2,10.7 141.7,39.1 151.8,35.3 "/>
<polygon class="st0" points="134.7,99.5 147.4,83.9 136.7,83.9 127.2,95.1 107.8,83.9 89.4,83.9 100.6,90.2 142.1,113.5 
	152.1,109.7 "/>
<rect x="87" y="25.8" class="st0" width="8.5" height="20.2"/>
<polygon class="st0" points="44,50.3 44,41.7 35.5,41.7 35.5,50.3 35.5,58.7 44,58.7 139.2,58.7 139.2,71.1 35.5,71.1 35.5,71.3 
	35.5,79.6 35.5,110.3 44,110.3 44,79.6 147.7,79.6 147.7,75.6 147.7,71.1 147.7,58.7 147.7,55.4 147.7,50.3 "/>
<text transform="matrix(1 0 0 1 0 150.0697)" class="st0 st1 st2">IN </text>
<text transform="matrix(1 0 0 1 51.7755 150.07)" class="st0 st1 st2">STOCK</text>
</svg>
