<?xml version="1.0" encoding="utf-8"?>
<!-- Generator: Adobe Illustrator 23.0.2, SVG Export Plug-In . SVG Version: 6.00 Build 0)  -->
<svg version="1.1" id="圖層_1" xmlns="http://www.w3.org/2000/svg" xmlns:xlink="http://www.w3.org/1999/xlink" x="0px" y="0px"
	 viewBox="0 0 185.1 160.3" style="enable-background:new 0 0 185.1 160.3;" xml:space="preserve">
<style type="text/css">
	.st0{fill:none;stroke:#000000;stroke-width:3;stroke-miterlimit:10;}
	.st1{font-family:'ArialMT';}
	.st2{font-size:38.41px;}
</style>
<title>in-stock logo</title>
<polygon class="st0" points="92.5,2.6 32,37.9 42.1,41.7 92.5,13.3 143,41.7 153.1,37.9 "/>
<rect x="88.3" y="28.4" class="st0" width="8.5" height="20.2"/>
<polygon class="st0" points="131.2,106.1 143.9,90.5 133.2,90.5 123.7,101.7 104.3,90.5 85.9,90.5 97.1,96.8 138.6,120.1 
	148.6,116.3 "/>
<polygon class="st0" points="45,54.9 45,46.3 36.5,46.3 36.5,54.9 36.5,63.3 45,63.3 140.1,63.3 140.1,75.7 36.5,75.7 36.5,75.9 
	36.5,84.2 36.5,114.9 45,114.9 45,84.2 148.6,84.2 148.6,80.2 148.6,75.7 148.6,63.3 148.6,60 148.6,54.9 "/>
<g>
	<text transform="matrix(1 0 0 1 0.8513 151.0697)" class="st1 st2">IN </text>
	<text transform="matrix(1 0 0 1 52.6268 151.07)" class="st1 st2">STOCK</text>
</g>
</svg>
