<!--?xml version="1.0" encoding="utf-8"?-->
<!-- Generator: Adobe Illustrator 23.0.2, SVG Export Plug-In . SVG Version: 6.00 Build 0)  -->
<svg version="1.1" id="圖層_1" xmlns="http://www.w3.org/2000/svg" xmlns:xlink="http://www.w3.org/1999/xlink" x="0px" y="0px" viewBox="0 0 185.1 160.3" style="" xml:space="preserve">
<style type="text/css">
	.st0{fill:none;stroke:#000000;stroke-width:3;stroke-miterlimit:10;}
	.st1{font-family:'ArialMT';}
	.st2{font-size:38.41px;}
</style>
<title>in-stock logo</title>
<path class="st0 zBrNedVn_0" d="M92.5,2.6L32,37.9L42.1,41.7L92.5,13.3L143,41.7L153.1,37.9Z"></path>
<path class="st0 zBrNedVn_1" width="8.5" height="20.2" d="M88.3 28.4 L96.8 28.4 L96.8 48.599999999999994 L88.3 48.599999999999994 Z"></path>
<path class="st0 zBrNedVn_2" d="M131.2,106.1L143.9,90.5L133.2,90.5L123.7,101.7L104.3,90.5L85.9,90.5L97.1,96.8L138.6,120.1L
	148.6,116.3Z"></path>
<path class="st0 zBrNedVn_3" d="M45,54.9L45,46.3L36.5,46.3L36.5,54.9L36.5,63.3L45,63.3L140.1,63.3L140.1,75.7L36.5,75.7L36.5,75.9L
	36.5,84.2L36.5,114.9L45,114.9L45,84.2L148.6,84.2L148.6,80.2L148.6,75.7L148.6,63.3L148.6,60L148.6,54.9Z"></path>
<g>
	<text transform="matrix(1 0 0 1 0.8513 151.0697)" class="st1 st2">IN </text>
	<text transform="matrix(1 0 0 1 52.6268 151.07)" class="st1 st2">STOCK</text>
</g>
<style data-made-with="vivus-instant">.zBrNedVn_0{stroke-dasharray:278 280;stroke-dashoffset:279;animation:zBrNedVn_draw 2000ms linear 0ms forwards;}.zBrNedVn_1{stroke-dasharray:58 60;stroke-dashoffset:59;animation:zBrNedVn_draw 2000ms linear 333ms forwards;}.zBrNedVn_2{stroke-dasharray:178 180;stroke-dashoffset:179;animation:zBrNedVn_draw 2000ms linear 666ms forwards;}.zBrNedVn_3{stroke-dasharray:569 571;stroke-dashoffset:570;animation:zBrNedVn_draw 2000ms linear 1000ms forwards;}@keyframes zBrNedVn_draw{100%{stroke-dashoffset:0;}}@keyframes zBrNedVn_fade{0%{stroke-opacity:1;}94.44444444444444%{stroke-opacity:1;}100%{stroke-opacity:0;}}</style></svg>
